<svg width="636" height="162" viewBox="0 0 636 162" fill="none" xmlns="http://www.w3.org/2000/svg">
<path d="M449.376 137.316C452.659 137.316 456.11 138.846 458.357 141.258V141.266L455.359 145.073C453.794 143.205 451.555 141.979 449.438 141.979C445.535 141.979 442.505 145.145 442.505 149.287C442.505 153.43 445.535 156.635 449.438 156.635C451.486 156.635 453.733 155.546 455.359 153.847L458.387 157.277C455.979 159.865 452.498 161.524 449.177 161.524C442.375 161.524 437.237 156.251 437.237 149.352C437.237 142.453 442.475 137.316 449.376 137.316ZM430.596 161.299H425.098L423.311 156.675H412.758L410.972 161.299H405.665L415.558 137.5H420.865L430.596 161.299ZM490.06 161.299H484.561L482.775 156.675H472.222L470.435 161.299H465.128L475.021 137.5H480.329L490.06 161.299ZM547.839 141.955H535.638L535.63 141.948V147.115H546.627V151.571H535.63V156.843H548.192V161.299H530.493V137.5H547.839V141.955ZM571.152 152.052L577.755 137.5H583.484V161.299H578.859V145.248L572.808 158.887H569.458L563.407 145.248V161.299H558.751V137.5H564.511L571.152 152.052ZM600.179 161.299H595.041V137.5H600.179V161.299ZM634.066 161.299H628.568L626.781 156.675H616.229L614.442 161.299H609.135L619.028 137.5H624.334L634.066 161.299ZM508.612 137.49C515.675 137.49 520.59 142.354 520.59 149.389C520.59 156.424 515.613 161.288 508.419 161.288H498.949V137.49H508.612ZM504.094 156.769H508.75C512.553 156.769 515.352 153.78 515.352 149.429C515.352 145.078 512.422 142.017 508.519 142.017H504.094V156.769ZM414.454 152.356H421.647L418.066 143.109L414.454 152.356ZM473.917 152.356H481.111L477.529 143.109L473.917 152.356ZM617.916 152.356H625.109L621.528 143.109L617.916 152.356ZM321.117 23.8088C328.425 23.8088 334.031 25.9643 337.912 30.2512V30.2434C341.8 34.5465 343.74 40.7088 343.74 48.7219V100.279C343.74 108.308 341.8 114.47 337.912 118.757C334.031 123.052 328.44 125.199 321.117 125.199C313.793 125.199 308.188 123.06 304.307 118.757C300.419 114.462 298.478 108.3 298.478 100.279V48.7297C298.478 40.7166 300.419 34.5543 304.307 30.2512C308.188 25.9644 313.809 23.8089 321.117 23.8088ZM612.708 23.8088C620.031 23.8088 625.638 25.9643 629.518 30.2512V30.2434C633.398 34.5465 635.346 40.7088 635.346 48.7219V100.279C635.346 108.308 633.398 114.47 629.518 118.757C625.638 123.052 620.016 125.199 612.708 125.199C605.4 125.199 599.794 123.06 595.914 118.757C592.026 114.462 590.085 108.3 590.084 100.279V48.7297C590.084 40.7166 592.025 34.5543 595.914 30.2512C599.794 25.9645 605.384 23.8089 612.708 23.8088ZM561.366 23.7981C568.682 23.7981 574.212 25.9544 577.969 30.2415C581.711 34.5444 583.582 40.7062 583.583 48.719V61.7893H569.488V47.7415C569.488 44.1598 568.797 41.6277 567.394 40.1614C565.991 38.703 564.104 37.9739 561.765 37.9739C559.426 37.9739 557.54 38.6951 556.152 40.1614C554.749 41.6277 554.043 44.1598 554.042 47.7415V101.253C554.042 104.851 554.748 107.344 556.152 108.762C557.54 110.18 559.411 110.885 561.765 110.885C564.119 110.885 565.991 110.18 567.394 108.762C568.79 107.344 569.488 104.851 569.488 101.253V82.968H583.583V100.268C583.583 108.297 581.712 114.459 577.969 118.746C574.212 123.041 568.682 125.189 561.366 125.189C554.05 125.189 548.521 123.049 544.763 118.746C541.021 114.451 539.15 108.289 539.15 100.268V48.719C539.15 40.7062 541.021 34.5444 544.763 30.2415C548.521 25.9545 554.05 23.7982 561.366 23.7981ZM237.634 124.051H222.588L220.011 106.07H201.729L199.153 124.051H185.463L200.648 24.9446H222.451L237.634 124.051ZM277.075 84.2659V24.9446H290.349V124.051H275.035L256.476 52.2698V124.051H243.055V24.9446H261.759L277.075 84.2659ZM420.573 124.051H405.665V24.9446H420.573V124.051ZM478.291 124.051H463.251L460.675 106.07H442.377L439.808 124.051H426.12L441.303 24.9446H463.122L478.291 124.051ZM517.738 84.2659V24.9446H531.012V124.051H515.698L497.139 52.2698V124.051H483.718V24.9446H502.423L517.738 84.2659ZM163.377 24.9397C170.878 24.9397 176.461 27.0153 180.119 31.1741C183.777 35.3169 185.602 41.4147 185.602 49.4358V62.3206C185.602 70.3417 183.777 76.4244 180.119 80.5833C176.461 84.7419 170.877 86.8167 163.377 86.8167H156.337V124.046H141.429V34.7317L150.801 24.9397H163.377ZM374.501 24.9397C382.27 24.9397 387.899 26.8228 391.373 30.5969C394.846 34.379 396.587 40.0843 396.587 47.7366V51.2786C396.587 56.3748 395.828 60.5817 394.287 63.8831C392.745 67.1844 390.307 69.6369 386.963 71.2395C391.035 72.8421 393.904 75.4709 395.576 79.1008V79.092C397.247 82.73 398.076 87.1942 398.076 92.4749V100.543C398.076 108.196 396.181 114.022 392.393 118.036C388.589 122.043 382.953 124.046 375.453 124.046H352.008V34.804L361.441 24.9397H374.501ZM321.125 37.9758C318.77 37.9758 316.891 38.6971 315.496 40.1633C314.1 41.6297 313.402 44.1625 313.402 47.7444V101.256C313.402 104.854 314.092 107.378 315.496 108.836C316.899 110.295 318.786 111.024 321.125 111.024C323.463 111.024 325.334 110.303 326.738 108.836C328.133 107.37 328.832 104.854 328.832 101.256V47.7444C328.832 44.1625 328.141 41.6297 326.738 40.1633C325.342 38.7052 323.479 37.9758 321.125 37.9758ZM612.708 37.9758C610.369 37.9759 608.498 38.6971 607.094 40.1633C605.699 41.6297 605 44.1625 605 47.7444V101.256C605.001 104.854 605.691 107.37 607.094 108.836C608.49 110.294 610.353 111.024 612.708 111.024C615.062 111.024 616.941 110.303 618.336 108.836C619.732 107.37 620.43 104.854 620.43 101.256V47.7444C620.43 44.1625 619.74 41.6217 618.336 40.1633C616.933 38.7052 615.046 37.9758 612.708 37.9758ZM366.917 109.903H375.453C377.983 109.903 379.9 109.19 381.211 107.772C382.515 106.369 383.175 103.813 383.175 100.135V91.4885C383.175 86.8731 382.423 83.7078 380.943 82.009C379.455 80.3104 376.986 79.4534 373.558 79.4534H366.917V109.903ZM203.631 92.6155H217.995L210.817 42.5012L203.631 92.6155ZM444.287 92.6155H458.65L451.464 42.5012L444.287 92.6155ZM156.337 72.6663H163.377C165.732 72.6663 167.542 72.0088 168.807 70.6868C170.065 69.3566 170.702 66.9125 170.702 63.3147V48.4504C170.702 44.8686 170.065 42.4162 168.807 41.094C167.534 39.7719 165.732 39.1145 163.377 39.1145H156.337V72.6663ZM366.917 65.3098H372.738C375.537 65.3098 377.723 64.5489 379.318 63.0344C380.882 61.5199 381.679 58.795 381.679 54.8206V49.3C381.679 45.7182 381.073 43.1136 379.854 41.511C378.635 39.9004 376.718 39.1067 374.095 39.1067H366.917V65.3098Z" fill="white"/>
<path d="M64.0962 0.705156V149.766H65.4996H95.3006L119.043 124.949C119.312 124.676 119.457 124.308 119.457 123.162V25.9385C119.457 25.4738 119.312 25.0891 119.043 24.8167L95.3083 0H64.1038V0.705156H64.0962ZM108.445 121.912L92.8006 138.259H75.1163V104.98H99.6565V93.7938H75.1163V59.3052H99.7102V48.1269H75.1163V11.5149H92.8006L108.445 27.8537V121.912Z" fill="#FF6101"/>
<path d="M55.3613 0H24.1568L0.414132 24.8167C0.145723 25.0891 1.52588e-05 25.4738 1.52588e-05 25.9385V123.17C1.52588e-05 124.316 0.145723 124.684 0.414132 124.957L24.1568 149.774H55.3613V0ZM11.0124 27.8537L26.6568 11.5149H44.3412V48.1349H19.7549V59.3132H44.3488V93.8018H19.8086V104.988H44.3488V138.267H26.6645L11.0201 121.92V27.8537H11.0124Z" fill="#FF6101"/>
</svg>
